<?xml version="1.0" encoding="UTF-8"?>
<svg xmlns="http://www.w3.org/2000/svg" xmlns:xlink="http://www.w3.org/1999/xlink" viewBox="0 0 144 144" width="144px" height="144px">
<g id="surface30704009">
<path style=" stroke:none;fill-rule:nonzero;fill:rgb(92.54902%,94.117647%,94.509804%);fill-opacity:1;" d="M 72 144 C 32.234375 144 0 111.765625 0 72 C 0 32.234375 32.234375 0 72 0 C 111.765625 0 144 32.234375 144 72 C 144 111.765625 111.765625 144 72 144 Z M 72 144 "/>
<path style=" stroke:none;fill-rule:nonzero;fill:rgb(29.803923%,68.627453%,31.37255%);fill-opacity:1;" d="M 128.386719 51.058594 L 114.960938 58.441406 L 101.535156 71.195312 L 101.535156 114.960938 L 120.328125 114.960938 C 124.777344 114.960938 128.386719 111.355469 128.386719 106.90625 Z M 128.386719 51.058594 "/>
<path style=" stroke:none;fill-rule:nonzero;fill:rgb(11.764706%,53.333336%,89.803922%);fill-opacity:1;" d="M 15.613281 51.058594 L 25.320312 55.648438 L 42.464844 71.195312 L 42.464844 114.960938 L 23.671875 114.960938 C 19.222656 114.960938 15.613281 111.355469 15.613281 106.90625 Z M 15.613281 51.058594 "/>
<path style=" stroke:none;fill-rule:nonzero;fill:rgb(89.803922%,22.352941%,20.784314%);fill-opacity:1;" d="M 101.535156 37.632812 L 72 59.785156 L 42.464844 37.632812 L 39.78125 53.203125 L 42.464844 71.195312 L 72 93.347656 L 101.535156 71.195312 L 104.21875 53.203125 Z M 101.535156 37.632812 "/>
<path style=" stroke:none;fill-rule:nonzero;fill:rgb(77.64706%,15.686275%,15.686275%);fill-opacity:1;" d="M 15.613281 40.582031 L 15.613281 51.058594 L 42.464844 71.195312 L 42.464844 37.632812 L 34.078125 31.347656 C 32.078125 29.847656 29.652344 29.039062 27.15625 29.039062 C 20.78125 29.039062 15.613281 34.207031 15.613281 40.582031 Z M 15.613281 40.582031 "/>
<path style=" stroke:none;fill-rule:nonzero;fill:rgb(98.431373%,75.294119%,17.647059%);fill-opacity:1;" d="M 128.386719 40.582031 L 128.386719 51.058594 L 101.535156 71.195312 L 101.535156 37.632812 L 109.921875 31.347656 C 111.921875 29.847656 114.347656 29.039062 116.84375 29.039062 C 123.21875 29.039062 128.386719 34.207031 128.386719 40.582031 Z M 128.386719 40.582031 "/>
</g>
</svg>
